# xmcd CD database file
#
# Track frame offsets:
#	150
#	15709
#	27721
#	47245
#	66361
#	80413
#	96109
#	112369
#	126685
#	145653
#
# Disc length: 2160 seconds
#
# Revision: 0
# Processed by: cddbd v1.5.1PL0 Copyright (c) Steve Scherf et al.
# Submitted via: CDex 1.51
#
DISCID=98086e0a
DTITLE=Blues Brothers - Best of
DYEAR=1981
DGENRE=Blues
TTITLE0=Expressway to Your Heart
TTITLE1=Everybody Needs Somebody to Love
TTITLE2=I Don't Know
TTITLE3=She Caught the Katy
TTITLE4=Soul Man
TTITLE5=Rubber Biscuit
TTITLE6=Goin' Back to Miami
TTITLE7=Gimme Some Lovin'
TTITLE8="B" Movie Box Car Blues
TTITLE9=Flip, Flop and Fly
EXTD=YEAR: 1981
EXTT0=
EXTT1=
EXTT2=
EXTT3=
EXTT4=
EXTT5=
EXTT6=
EXTT7=
EXTT8=
EXTT9=
PLAYORDER=
